<svg width="22" height="24" viewBox="0 0 22 24" fill="none" xmlns="http://www.w3.org/2000/svg">
<path d="M17.5 17V19.5M17.5 19.5V22M17.5 19.5H15M17.5 19.5H20M20 4.5C20 5.88071 18.8807 7 17.5 7C16.1193 7 15 5.88071 15 4.5C15 3.11929 16.1193 2 17.5 2C18.8807 2 20 3.11929 20 4.5ZM12.9743 9.65811L17.1539 11.0513C18.0656 11.3552 18.0656 12.6448 17.154 12.9487L12.9743 14.3419C12.6757 14.4414 12.4414 14.6757 12.3419 14.9743L10.9487 19.1539C10.6448 20.0656 9.35522 20.0656 9.05132 19.154L7.65811 14.9743C7.55858 14.6757 7.32426 14.4414 7.02566 14.3419L2.84605 12.9487C1.93435 12.6448 1.93435 11.3552 2.84605 11.0513L7.02566 9.65811C7.32426 9.55858 7.55858 9.32426 7.65811 9.02566L9.05132 4.84605C9.35522 3.93435 10.6448 3.93435 10.9487 4.84605L12.3419 9.02566C12.4414 9.32426 12.6757 9.55858 12.9743 9.65811Z" stroke="#AAAAAA" stroke-width="3" stroke-linecap="round"/>
</svg>
